<svg version="1.1" id="logo" xmlns="http://www.w3.org/2000/svg" xmlns:xlink="http://www.w3.org/1999/xlink" x="0px" y="0px"
	 viewBox="0 0 405 238" style="enable-background:new 0 0 405 238;" xml:space="preserve">
<rect x="-40" y="-17" class="st0" width="419" height="255"/>

<defs> 

<style type="text/css">
	.st0{fill:none;}
	.st1{fill:#FFFFFF;stroke:#000000;stroke-width:2;stroke-miterlimit:10;}

#laurel {
  stroke-dasharray: 1000;
  stroke-dashoffset: 0;
  -webkit-animation: dash 4s linear forwards;
  -o-animation: dash 4s linear forwards;
  -moz-animation: dash 4s linear forwards;
  animation: dash 4s linear forwards;
}

#logo:hover .st0 {
  fill: none;
}

@-webkit-keyframes dash {
  from {
    stroke-dashoffset: 995;
  }
  to {
    stroke-dashoffset: 0;
  }
}


	</style>
</defs>

<g>
	<path id="laurel" class="st1" d="M171.76,35.71c0,10.43-3.23,21.34-9.69,32.73c-6.46,11.39-15.38,21.31-26.76,29.76
		c-11.38,8.45-23.14,13.76-35.26,15.91c-6.98,14.74-12.01,25.06-15.1,30.93l-3.6,6.11c22.65,5.87,41.4,14.81,56.27,26.79
		c7.55,6.11,12.64,13.6,15.27,22.48c1.37,4.55,2.06,8.45,2.06,11.69c0,3.24-0.6,5.96-1.8,8.18c-1.2,2.22-2.6,3.75-4.2,4.58
		c-1.6,0.84-2.74,1.26-3.43,1.26s-1.03-0.3-1.03-0.9c0-0.6,0.66-2.37,1.97-5.3c1.31-2.94,1.97-6.38,1.97-10.34
		c0-3.96-0.8-8.33-2.4-13.13c-1.6-4.8-4.58-9.2-8.92-13.22c-4.35-4.02-10.38-7.79-18.1-11.33c-7.72-3.53-14.41-6.05-20.07-7.55
		c-5.66-1.5-13.24-3.21-22.73-5.12c-9.72,14.26-19.85,24.03-30.37,29.31c-6.29,3.24-11.87,4.86-16.73,4.86
		c-4.86,0-9.18-1.02-12.95-3.06c-6.52-3.36-9.78-8.45-9.78-15.28c0-6.83,4.29-12.83,12.87-17.98c9.72-5.99,22.87-8.99,39.46-8.99
		c5.95,0,11.32,0.48,16.13,1.44c5.15-8.39,11.15-19.96,18.01-34.7c-0.69,0-1.32,0-1.89,0c-7.21,0-13.9-1.26-20.07-3.78
		c-6.18-2.52-11.1-5.93-14.75-10.25c-4.8-5.63-7.21-11.99-7.21-19.06c0-3.71,0.88-7.73,2.66-12.05c1.77-4.32,5.72-8.69,11.84-13.13
		c6.12-4.43,13.87-7.79,23.25-10.07c1.49-0.36,2.75-0.54,3.77-0.54c1.03,0,1.66,0.3,1.89,0.9c0.23,0.6-0.23,1.14-1.37,1.62
		c-1.14,0.48-2.46,0.84-3.95,1.08c-4.92,0.6-9.49,2.34-13.72,5.21c-7.32,4.92-12.41,12.47-15.27,22.66
		c-0.69,2.4-1.03,4.71-1.03,6.92c0,2.22,0.4,4.89,1.2,8c0.8,3.12,2.51,6.32,5.15,9.62c2.63,3.3,6.2,5.61,10.72,6.92
		c4.52,1.32,8.46,1.98,11.84,1.98c3.37,0,6.49-0.18,9.35-0.54l14.58-38.48c10.06-27.09,22.07-43.75,36.03-49.99
		c3.66-1.56,7.23-2.34,10.72-2.34c3.49,0,6.8,1.17,9.95,3.51c3.14,2.34,4.83,5.19,5.06,8.54C171.7,33.02,171.76,34.4,171.76,35.71z
		 M69.51,158.17c-5.61-1.32-11.38-1.98-17.33-1.98c-5.95,0-12.07,0.9-18.36,2.7c-13.15,3.6-20.87,8.69-23.16,15.28
		c-0.46,1.2-0.69,2.34-0.69,3.42c0,3.12,1.63,5.66,4.89,7.64c3.26,1.98,6.83,2.97,10.72,2.97c5.37,0,11.21-1.56,17.5-4.67
		C52.58,178.72,61.38,170.28,69.51,158.17z M164.55,35.89c0-4.55-2-6.83-6-6.83c-5.83,0-12.93,5.34-21.27,16
		c-6.52,8.51-12.78,18.79-18.79,30.84c-6.01,12.05-11.35,23.17-16.04,33.36c15.9-3.71,30.22-12.86,42.98-27.42
		C158.18,67.27,164.55,51.96,164.55,35.89z"/>
	<path id="laurel" class="st1" d="M182.57,138.3c-3.77,7.61-6.03,13.31-6.78,17.08c-0.75,3.78-1.12,6.83-1.12,9.17c0,2.34,0.86,3.51,2.57,3.51
		c2.17,0,4.86-2.1,8.06-6.29c4.69-6.11,9.32-14.08,13.9-23.91c0.46-1.08,0.97-1.68,1.54-1.8c0.91-0.36,1.37,0,1.37,1.08
		c0,0.6-0.17,1.32-0.51,2.16c-10.52,22.3-19.39,33.45-26.59,33.45c-3.32,0-6-1.68-8.06-5.03c-1.03-1.8-1.54-4.19-1.54-7.19
		c0-3,0.57-6.65,1.72-10.97c-9.15,15.46-17.04,23.2-23.68,23.2c-1.83,0-3.49-0.6-4.98-1.8c-3.43-2.52-5.15-6.83-5.15-12.95
		c0-11.75,4.86-23.67,14.58-35.78c5.49-6.71,12.24-11.09,20.24-13.13c2.17-0.6,4.23-0.9,6.18-0.9c5.26,0,9.72,1.92,13.38,5.75
		c1.14,1.32,1.49,2.58,1.03,3.78c-0.46,1.2-1.43,1.68-2.92,1.44c-1.26-4.32-4-6.47-8.24-6.47c-4.92,0-10.98,4.08-18.19,12.23
		c-4.12,4.8-7.95,10.43-11.49,16.9c-4.46,7.79-6.69,14.03-6.69,18.7c0,4.68,1.43,7.01,4.29,7.01c6.86,0,15.84-11.03,26.94-33.09
		c2.17-4.43,4-7.46,5.49-9.08c1.48-1.62,3.37-2.43,5.66-2.43c0.46,0,1.63,0.18,3.52,0.54c1.89,0.36,3.29,0.42,4.2,0.18
		C189.26,125.8,186.34,130.69,182.57,138.3z"/>
	<path id="laurel" class="st1" d="M193.2,161.94c0-5.15,2.12-11.39,6.35-18.7c-1.83,0-2.35-0.96-1.54-2.88l3.09-6.29
		c3.89-7.79,7.09-14.39,9.61-19.78c1.14-2.52,3.37-3.78,6.69-3.78h10.47c-4.12,3.12-8.26,9.14-12.44,18.07
		c-4.18,8.93-7.41,15.94-9.69,21.04c-2.29,5.1-3.43,8.96-3.43,11.6c0,2.64,0.43,4.5,1.29,5.57s2.03,1.62,3.52,1.62
		c2.17,0,5.2-2.4,9.09-7.19c6.06-7.43,14.58-23.07,25.56-46.93c1.26-2.52,3.49-3.78,6.69-3.78h9.26c-2.52,2.04-4.49,4.14-5.92,6.29
		c-1.43,2.16-3.41,6-5.92,11.51c-6.86,14.39-10.7,23.91-11.49,28.59c-0.34,1.68-0.51,3.24-0.51,4.68c0,3.84,1.26,5.88,3.77,6.11
		c6.18,0,13.78-10.01,22.82-30.03c0.69-1.68,1.37-2.34,2.06-1.98c0.69,0.36,1.03,0.84,1.03,1.44c0,0.6-0.51,1.98-1.54,4.14
		c-1.03,2.16-2.03,4.26-3,6.29c-0.97,2.04-2.46,4.83-4.46,8.36c-2,3.54-3.86,6.32-5.58,8.36c-4.46,5.28-8.84,7.91-13.13,7.91
		s-7.24-1.98-8.84-5.93c-0.69-1.8-1.03-4.07-1.03-6.83c0-2.76,0.57-6.17,1.72-10.25c-8.35,15.35-16.07,23.02-23.16,23.02
		c-6.18,0-9.78-2.7-10.81-8.09C193.37,163.5,193.2,162.78,193.2,161.94z"/>
	<path id="laurel" class="st1" d="M283.62,100.27c0,5.39-3.26,10.49-9.78,15.28c2.29,0.12,5.35,0.18,9.18,0.18c3.83,0,8.66-0.3,14.5-0.9
		c0.23,0.36,0.34,1.32,0.34,2.88c0,1.56-0.69,3.87-2.06,6.92s-2.6,5.69-3.69,7.91c-1.09,2.22-2.12,4.32-3.09,6.29
		c-0.97,1.98-2.06,4.41-3.26,7.28c-1.2,2.88-2.2,5.51-3,7.91c-2.86,9.11-2.4,13.67,1.37,13.67c4.8,0,11.89-10.01,21.27-30.03
		c0.8-1.56,1.46-2.16,1.97-1.8c0.52,0.36,0.77,0.81,0.77,1.35c0,0.54-0.74,2.4-2.23,5.57c-1.49,3.18-3.09,6.45-4.8,9.8
		c-1.71,3.36-4.4,7.25-8.06,11.69c-4.35,5.52-8.52,8.27-12.52,8.27c-4.46,0-7.55-2.82-9.26-8.45c-0.34-1.08-0.51-2.7-0.51-4.85
		c0-2.16,0.66-5.03,1.97-8.63c1.31-3.6,3.4-7.97,6.26-13.13c2.86-5.15,4.46-8.18,4.8-9.08c0.34-0.9,0.52-1.77,0.52-2.61
		c0-3.71-4.58-5.69-13.73-5.93l-2.06,5.75c-7.21,19.78-14.13,33.03-20.76,39.74c-1.14,1.08-1.72,0.72-1.72-1.08
		c0-0.36,0.12-0.78,0.34-1.26c6.4-8.87,11.95-19.36,16.64-31.47c4.69-12.11,7.95-23.61,9.78-34.52c0.69-3.71,2.29-5.57,4.8-5.57
		c2.51,0,4.35,1.68,5.49,5.03C283.44,97.57,283.62,98.83,283.62,100.27z"/>
	<path id="laurel" class="st1" d="M312.61,144.68c-1.6,4.08-2.4,8.63-2.4,13.67c0,3.36,0.71,6.02,2.14,8c1.43,1.98,3.46,2.97,6.09,2.97
		c10.41,0,19.84-10.25,28.31-30.75c0.8-1.92,1.77-2.76,2.92-2.52c0.46,0.12,0.69,0.42,0.69,0.9c0,0.48-1.29,3.63-3.86,9.44
		c-2.57,5.82-5.18,10.52-7.81,14.12c-5.83,8.39-13.04,12.59-21.62,12.59c-4.58,0-8.47-1.56-11.67-4.68c-3.2-3.12-4.8-7.37-4.8-12.77
		c0-5.39,1.23-11.12,3.69-17.17c2.46-6.05,5.81-11.69,10.04-16.9c4.23-5.21,9.09-9.02,14.58-11.42c2.63-1.2,5.15-1.8,7.55-1.8
		c2.4,0,4.63,0.72,6.69,2.16c1.94,1.68,2.92,3.54,2.92,5.57c0,7.19-4.12,14.09-12.35,20.68c-2.52,2.04-6.06,3.87-10.64,5.48
		C318.5,143.87,315.01,144.68,312.61,144.68z M341.43,115.91c0-2.4-0.92-3.6-2.75-3.6c-3.2,0-8.06,4.14-14.58,12.41
		c-3.89,5.03-7.32,10.67-10.29,16.9c1.94,0,4.77-0.72,8.49-2.16c3.71-1.44,6.95-3.35,9.69-5.75
		C338.28,128.08,341.43,122.15,341.43,115.91z"/>
	<path id="laurel" class="st1" d="M355.16,142.61c-0.92,2.82-1.69,5.52-2.32,8.09c-0.63,2.58-0.94,5.16-0.94,7.73c0,2.58,0.57,4.98,1.72,7.19
		c1.14,2.22,2.97,3.33,5.49,3.33c4.12,0,8.12-2.91,12.01-8.72c3.89-5.81,8.01-13.22,12.35-22.21c0.91-1.68,1.77-2.34,2.57-1.98
		c0.57,0.48,0.69,1.11,0.34,1.89c-0.34,0.78-1.06,2.46-2.14,5.03c-1.09,2.58-1.89,4.38-2.4,5.39c-0.51,1.02-1.43,2.82-2.75,5.39
		c-1.32,2.58-2.46,4.5-3.43,5.75c-0.97,1.26-2.29,2.88-3.95,4.85c-1.66,1.98-3.23,3.45-4.72,4.41c-4.01,2.64-7.78,3.96-11.32,3.96
		c-3.55,0-6.29-0.81-8.24-2.43c-1.95-1.62-3.12-3.35-3.52-5.21c-0.4-1.86-0.6-3.51-0.6-4.94c0-1.44,0.06-3.3,0.17-5.57
		c0.34-3.84,1.06-7.55,2.14-11.15c1.08-3.6,1.69-5.63,1.8-6.11c2.63-9.95,6.37-20.8,11.24-32.55c4.86-11.75,8.98-20.59,12.35-26.52
		c3.37-5.93,6.03-9.98,7.98-12.14c3.89-4.32,7.72-6.47,11.49-6.47c2.63,0,4.4,1.98,5.32,5.93c0.11,0.72,0.17,1.62,0.17,2.7
		c0,4.08-1.37,9.23-4.12,15.46c-9.84,22.9-21.56,40.88-35.17,53.94C356.58,138.15,356.07,139.8,355.16,142.61z M375.4,108.36
		c5.72-9.47,9.92-17.53,12.61-24.18c2.69-6.65,4.03-11.18,4.03-13.58c0-2.4-0.4-3.6-1.2-3.6c-1.14,0-3.32,2.37-6.52,7.1
		c-3.2,4.74-7.52,13.25-12.95,25.53c-5.43,12.29-9.87,23.05-13.3,32.28C363.91,125.68,369.68,117.83,375.4,108.36z"/>
</g>
</svg>
